<?xml version="1.0" encoding="UTF-8" standalone="no"?>
<!-- Created with Inkscape (http://www.inkscape.org/) -->

<svg
   width="3.2463133mm"
   height="2.8888419mm"
   viewBox="0 0 3.2463133 2.8888419"
   version="1.1"
   id="svg1"
   inkscape:version="1.3 (0e150ed6c4, 2023-07-21)"
   sodipodi:docname="favicon.svg"
   xmlns:inkscape="http://www.inkscape.org/namespaces/inkscape"
   xmlns:sodipodi="http://sodipodi.sourceforge.net/DTD/sodipodi-0.dtd"
   xmlns="http://www.w3.org/2000/svg"
   xmlns:svg="http://www.w3.org/2000/svg">
  <sodipodi:namedview
     id="namedview1"
     pagecolor="#ffffff"
     bordercolor="#ffffff"
     borderopacity="1"
     inkscape:showpageshadow="2"
     inkscape:pageopacity="0.0"
     inkscape:pagecheckerboard="0"
     inkscape:deskcolor="#ffffff"
     inkscape:document-units="mm"
     inkscape:zoom="25.913132"
     inkscape:cx="8.9336945"
     inkscape:cy="31.277578"
     inkscape:window-width="1920"
     inkscape:window-height="1147"
     inkscape:window-x="-8"
     inkscape:window-y="-8"
     inkscape:window-maximized="1"
     inkscape:current-layer="layer1" />
  <defs
     id="defs1" />
  <g
     inkscape:label="Layer 1"
     inkscape:groupmode="layer"
     id="layer1"
     transform="translate(-1035.852,-889.16813)">
    <path
       style="fill:#000000;stroke:none;stroke-width:0.00532792"
       d="m 1036.4855,891.68182 -0.4162,-1.74816"
       id="path5"
       inkscape:export-filename="icon.png"
       inkscape:export-xdpi="4572.2319"
       inkscape:export-ydpi="4572.2319" />
    <path
       style="fill:#000000;stroke:none;stroke-width:0.00532792"
       d="m 1037.1101,889.36143 0.2617,1.12809"
       id="path6" />
    <path
       style="fill:#000000;stroke:none;stroke-width:0.00532792"
       d="m 1037.3718,890.48952 1.4456,-0.008"
       id="path37"
       sodipodi:nodetypes="cc" />
    <path
       style="fill:#000000;stroke:none;stroke-width:0.00532792"
       d="m 1036.4855,891.68182 2.2272,0.26437"
       id="path38" />
    <path
       style="fill:#6c5367;stroke:none;stroke-width:0.00532792"
       d="m 1038.7127,891.94619 -2.2272,-0.26437 -0.4162,-1.74816 1.1716,-0.008 0.1309,0.56404 1.4456,-0.008 z"
       id="path39" />
    <path
       style="fill:#6c5367;stroke:none;stroke-width:0.00532792"
       d="m 1037.1101,889.36143 0.1308,0.56404 1.6177,-0.0209 0.055,-0.6183 z"
       id="path41" />
    <path
       style="fill:#916f8a;stroke:none;stroke-width:0.00532792"
       d="m 1037.3718,890.48952 -0.8863,1.1923 2.2272,0.26437 0.1047,-1.46469 z"
       id="path42" />
    <path
       style="fill:#483745;fill-opacity:1;stroke:none;stroke-width:0.00532792"
       d="m 1036.0693,889.93366 1.0408,-0.57223 0.1308,0.56404 z"
       id="path44" />
    <path
       style="fill:#333333;fill-opacity:1;stroke:none;stroke-width:0.00500547"
       d="m 1028.4437,889.84525 1.2582,-0.58974 1.9881,-0.0874 -0.1224,0.75734 -0.1048,0.10808 -1.5063,-0.009 0.1251,0.34967 1.4904,-0.0175 -0.201,1.70025 -2.3591,-0.25479 z"
       id="path47-7"
       sodipodi:nodetypes="ccccccccccc" />
    <path
       style="fill:#000000;stroke:none;stroke-width:0.00532792"
       d="m 1029.0773,891.68178 -0.4162,-1.74816"
       id="path5-8" />
    <path
       style="fill:#000000;stroke:none;stroke-width:0.00532792"
       d="m 1029.7019,889.36139 0.2617,1.12809"
       id="path6-4" />
    <path
       style="fill:#000000;stroke:none;stroke-width:0.00532792"
       d="m 1029.9636,890.48948 1.4456,-0.008"
       id="path37-2"
       sodipodi:nodetypes="cc" />
    <path
       style="fill:#000000;stroke:none;stroke-width:0.00532792"
       d="m 1029.0773,891.68178 2.2272,0.26437"
       id="path38-0" />
    <path
       style="fill:#6c5367;stroke:none;stroke-width:0.00532792"
       d="m 1031.3045,891.94615 -2.2272,-0.26437 -0.4162,-1.74816 1.1716,-0.008 0.1309,0.56404 1.4456,-0.008 z"
       id="path39-6" />
    <path
       style="fill:#6c5367;stroke:none;stroke-width:0.00532792"
       d="m 1029.7019,889.36139 0.1308,0.56404 1.6177,-0.0209 0.055,-0.6183 z"
       id="path41-7" />
    <path
       style="fill:#916f8a;stroke:none;stroke-width:0.00532792"
       d="m 1029.9636,890.48948 -0.8863,1.1923 2.2272,0.26437 0.1047,-1.46469 z"
       id="path42-9" />
    <path
       style="fill:#333333;fill-opacity:1;stroke-width:0.0815549"
       d="m 1029.5147,890.66451 -0.2514,0.31712 0.1158,0.29408 0.5462,-0.007 0.1269,-0.26038 -0.04,-0.33382 z"
       id="path4-1"
       sodipodi:nodetypes="ccccccc" />
    <path
       style="fill:#483745;fill-opacity:1;stroke:none;stroke-width:0.00532792"
       d="m 1028.6611,889.93362 1.0408,-0.57223 0.1308,0.56404 z"
       id="path44-0" />
    <path
       style="fill:#584354;fill-opacity:1;stroke-width:0.0815549"
       d="m 1029.3896,891.26144 -0.1123,-0.27793 0.5555,-0.0333 0.072,0.30843 z"
       id="path1-6"
       sodipodi:nodetypes="ccccc" />
    <path
       style="fill:#916f8a;fill-opacity:1;stroke-width:0.0815549"
       d="m 1029.2773,890.9835 0.2579,-0.28281 h 0.4654 l -0.1679,0.24961 z"
       id="path2-4"
       sodipodi:nodetypes="ccccc" />
    <path
       style="fill:#6c5367;fill-opacity:1;stroke-width:0.0815549"
       d="m 1029.8328,890.95023 0.1678,-0.24954 0.035,0.30729 -0.1308,0.25067 z"
       id="path3-0"
       sodipodi:nodetypes="ccccc" />
    <path
       style="fill:#333333;fill-opacity:1;stroke:#333333;stroke-width:0.405;stroke-dasharray:none"
       d="m 1038.2333,894.34318 1.2582,-0.58974 1.9881,-0.0874 -0.1224,0.75734 -0.1048,0.10808 -1.5063,-0.009 0.1251,0.34967 1.4904,-0.0175 -0.201,1.70025 -2.3591,-0.25479 z"
       id="path47-7-1"
       sodipodi:nodetypes="ccccccccccc"
       inkscape:export-filename="icon.png"
       inkscape:export-xdpi="6975.6089"
       inkscape:export-ydpi="6975.6089" />
    <path
       style="fill:#000000;stroke:none;stroke-width:0.00532792"
       d="m 1038.8669,896.17971 -0.4162,-1.74816"
       id="path5-8-8" />
    <path
       style="fill:#000000;stroke:none;stroke-width:0.00532792"
       d="m 1039.4915,893.85932 0.2617,1.12809"
       id="path6-4-8" />
    <path
       style="fill:#000000;stroke:none;stroke-width:0.00532792"
       d="m 1039.7532,894.98741 1.4456,-0.008"
       id="path37-2-8"
       sodipodi:nodetypes="cc" />
    <path
       style="fill:#000000;stroke:none;stroke-width:0.00532792"
       d="m 1038.8669,896.17971 2.2272,0.26437"
       id="path38-0-3" />
    <path
       style="fill:#ffffff;stroke:none;stroke-width:0.00532792"
       d="m 1041.0941,896.44408 -2.2272,-0.26437 -0.4162,-1.74816 1.1716,-0.008 0.1309,0.56404 1.4456,-0.008 z"
       id="path39-6-4" />
    <path
       style="fill:#ffffff;stroke:none;stroke-width:0.00532792"
       d="m 1039.4915,893.85932 0.1308,0.56404 1.6177,-0.0209 0.055,-0.6183 z"
       id="path41-7-6" />
    <path
       style="fill:#ffffff;stroke:none;stroke-width:0.00532792"
       d="m 1039.7532,894.98741 -0.8863,1.1923 2.2272,0.26437 0.1047,-1.46469 z"
       id="path42-9-9" />
    <path
       style="fill:#ffffff;fill-opacity:1;stroke:none;stroke-width:0.00532792"
       d="m 1038.4507,894.43155 1.0408,-0.57223 0.1308,0.56404 z"
       id="path44-0-5" />
  </g>
</svg>
